<?xml version="1.0" encoding="iso-8859-1"?>
<!-- Generator: Adobe Illustrator 18.0.0, SVG Export Plug-In . SVG Version: 6.00 Build 0)  -->
<!DOCTYPE svg PUBLIC "-//W3C//DTD SVG 1.1//EN" "http://www.w3.org/Graphics/SVG/1.1/DTD/svg11.dtd">
<svg version="1.1" id="_x31_" xmlns="http://www.w3.org/2000/svg" xmlns:xlink="http://www.w3.org/1999/xlink" x="0px" y="0px"
	 viewBox="0 0 512 512" style="enable-background:new 0 0 512 512;" xml:space="preserve">
<g>
	<g>
		<rect style="fill:#138590;" width="512" height="512"/>
	</g>
	<path style="opacity:0.1;fill:#231815;" d="M512,191.591V512H197.325L94.567,409.293l-7.782-7.782l-8.141-8.141V226.663
		l63.488-63.488l11.93-11.929l13.209-13.21h90.471v-18.841c0-9.114,7.373-16.487,16.435-16.487h148.941l10.24,10.24L512,191.591z"/>
	<g>
		<g>
			<g>
				<path style="fill:#C9A662;" d="M433.357,102.707v272.179H78.643V138.035h179.098v-18.841c0-9.114,7.373-16.487,16.435-16.487
					H433.357z"/>
			</g>
			<g>
				<g>
					<rect x="97.923" y="163.152" style="fill:#342221;" width="316.154" height="132.416"/>
				</g>
				<g>
					<rect x="97.923" y="179.52" style="fill:#FFFFFF;" width="316.154" height="124.479"/>
				</g>
			</g>
			<g>
				<rect x="289.607" y="210.014" style="fill:#EAB01E;" width="33.318" height="72.419"/>
			</g>
			<g>
				<rect x="328.895" y="226.828" style="fill:#C13B45;" width="33.319" height="72.419"/>
			</g>
			<g>
				<rect x="368.184" y="218.421" style="fill:#22A3B0;" width="33.319" height="72.419"/>
			</g>
			<g>
				<path style="fill:#D3B161;" d="M433.357,265.063v132.659c0,6.4-5.171,11.571-11.52,11.571H90.163
					c-3.072,0-5.888-1.229-7.936-3.226c-2.253-2.099-3.584-5.069-3.584-8.346V222.464h159.181c7.577,0,13.977,5.12,15.872,12.134
					c0.359,1.382,0.564,2.816,0.564,4.301v26.163H433.357z"/>
			</g>
			<g>
				<g>
					<path style="fill:#D3B161;" d="M139.059,299.827c0-1.843,0.358-3.226,1.126-4.249c0.973-1.331,2.611-1.997,4.864-1.997h6.81
						v-14.694h-9.882c-3.532,0-6.605,0.614-9.113,1.741c-2.56,1.178-4.608,2.663-6.247,4.557c-1.689,1.843-2.867,3.942-3.686,6.297
						c-0.461,1.331-0.768,2.714-0.973,4.096c-0.153,1.075-0.205,2.099-0.205,3.174v8.653h-7.219v13.209h7.219v54.272h17.306v-54.272
						h12.8v-13.209h-12.8V299.827z M163.43,279.45v14.131h17.767V279.45H163.43z M163.738,307.405v67.482h17.306v-67.482H163.738z"
						/>
					<path style="fill:#D3B161;" d="M223.181,360.192c-2.253,0-3.84-0.512-4.762-1.587c-0.922-1.075-1.382-2.611-1.382-4.659
						v-73.984H199.68v75.059c0,2.457,0.41,4.915,1.178,7.27c0.717,2.355,1.946,4.454,3.584,6.298
						c1.638,1.895,3.738,3.379,6.298,4.557c2.611,1.127,5.683,1.741,9.216,1.741h9.882v-14.694H223.181z"/>
					<path style="fill:#D3B161;" d="M300.749,338.227c0-4.915-0.666-9.421-1.997-13.517c-1.331-4.147-3.328-7.731-5.888-10.701
						s-5.734-5.273-9.523-6.912c-3.789-1.638-8.09-2.458-12.851-2.458c-4.557,0-8.653,0.768-12.339,2.304
						c-3.686,1.587-6.861,3.84-9.523,6.861c-2.662,3.021-4.762,6.758-6.195,11.162c-1.485,4.403-2.202,9.421-2.202,15.104
						c0,7.014,0.871,12.851,2.714,17.408c1.843,4.557,4.25,8.192,7.219,10.906c2.97,2.714,6.4,4.608,10.24,5.683
						c1.178,0.307,2.407,0.614,3.584,0.819c2.714,0.512,5.478,0.768,8.346,0.768c3.123,0,5.888-0.205,8.397-0.666
						c0.153-0.051,0.358-0.051,0.512-0.102c2.304-0.41,4.403-1.075,6.349-1.946c2.099-0.921,4.045-2.099,5.786-3.481
						c1.792-1.383,3.584-2.919,5.376-4.711l-10.547-10.291c-2.202,2.15-4.455,3.789-6.656,4.864c-2.253,1.126-5.273,1.69-9.062,1.69
						c-4.967,0-8.755-1.433-11.367-4.352c-2.56-2.867-3.84-6.605-3.84-11.111h43.469V338.227z M257.28,333.671
						c0.103-1.485,0.205-2.816,0.41-3.943c0.153-1.075,0.563-2.253,1.177-3.533c0.973-1.997,2.407-3.738,4.352-5.12
						c1.894-1.382,4.301-2.048,7.27-2.048c2.918,0,5.325,0.666,7.27,2.048c1.894,1.383,3.328,3.123,4.301,5.12
						c0.614,1.28,1.024,2.457,1.229,3.533c0.153,1.126,0.307,2.458,0.358,3.943H257.28z"/>
				</g>
				<g>
					<path style="fill:#70663D;" d="M139.059,299.827c0-1.843,0.358-3.226,1.126-4.249c0.973-1.331,2.611-1.997,4.864-1.997h6.81
						v-14.694h-9.882c-3.532,0-6.605,0.614-9.113,1.741c-2.56,1.178-4.608,2.663-6.247,4.557c-1.689,1.843-2.867,3.942-3.686,6.297
						c-0.461,1.331-0.768,2.714-0.973,4.096c-0.153,1.075-0.205,2.099-0.205,3.174v8.653h-7.219v13.209h7.219v54.272h17.306v-54.272
						h12.8v-13.209h-12.8V299.827z M163.43,279.45v14.131h17.767V279.45H163.43z M163.738,307.405v67.482h17.306v-67.482H163.738z"
						/>
					<path style="fill:#70663D;" d="M223.181,360.192c-2.253,0-3.84-0.512-4.762-1.587c-0.922-1.075-1.382-2.611-1.382-4.659
						v-73.984H199.68v75.059c0,2.457,0.41,4.915,1.178,7.27c0.717,2.355,1.946,4.454,3.584,6.298
						c1.638,1.895,3.738,3.379,6.298,4.557c2.611,1.127,5.683,1.741,9.216,1.741h9.882v-14.694H223.181z"/>
					<path style="fill:#70663D;" d="M300.749,338.227c0-4.915-0.666-9.421-1.997-13.517c-1.331-4.147-3.328-7.731-5.888-10.701
						s-5.734-5.273-9.523-6.912c-3.789-1.638-8.09-2.458-12.851-2.458c-4.557,0-8.653,0.768-12.339,2.304
						c-3.686,1.587-6.861,3.84-9.523,6.861c-2.662,3.021-4.762,6.758-6.195,11.162c-1.485,4.403-2.202,9.421-2.202,15.104
						c0,7.014,0.871,12.851,2.714,17.408c1.843,4.557,4.25,8.192,7.219,10.906c2.97,2.714,6.4,4.608,10.24,5.683
						c1.178,0.307,2.407,0.614,3.584,0.819c2.714,0.512,5.478,0.768,8.346,0.768c3.123,0,5.888-0.205,8.397-0.666
						c0.153-0.051,0.358-0.051,0.512-0.102c2.304-0.41,4.403-1.075,6.349-1.946c2.099-0.921,4.045-2.099,5.786-3.481
						c1.792-1.383,3.584-2.919,5.376-4.711l-10.547-10.291c-2.202,2.15-4.455,3.789-6.656,4.864c-2.253,1.126-5.273,1.69-9.062,1.69
						c-4.967,0-8.755-1.433-11.367-4.352c-2.56-2.867-3.84-6.605-3.84-11.111h43.469V338.227z M257.28,333.671
						c0.103-1.485,0.205-2.816,0.41-3.943c0.153-1.075,0.563-2.253,1.177-3.533c0.973-1.997,2.407-3.738,4.352-5.12
						c1.894-1.382,4.301-2.048,7.27-2.048c2.918,0,5.325,0.666,7.27,2.048c1.894,1.383,3.328,3.123,4.301,5.12
						c0.614,1.28,1.024,2.457,1.229,3.533c0.153,1.126,0.307,2.458,0.358,3.943H257.28z"/>
				</g>
			</g>
		</g>
		<g style="opacity:0.05;">
			<path style="fill:#231815;" d="M433.357,102.707v295.014c0,6.4-5.171,11.571-11.52,11.571H90.163
				c-3.072,0-5.888-1.229-7.936-3.226l4.557-4.557l52.275-52.275l24.678-24.73l17.101-17.101l3.43-3.431l8.448-8.397l6.963-6.963
				l8.653-8.653l41.318-41.318l4.045-4.045l55.04-55.091l16.384-16.333l60.416-60.467H433.357z"/>
		</g>
	</g>
</g>
</svg>
